HIERARCHY
ROOT Hips
{
  OFFSET 0 0 0
  CHANNELS 6 Xposition Yposition Zposition Zrotation Yrotation Xrotation
  JOINT LeftThigh
  {
    OFFSET 8.409438 0 -5.917753
    CHANNELS 3 Zrotation Yrotation Xrotation
    JOINT LeftLeg
    {
      OFFSET 0 0 -42.358652
      CHANNELS 3 Zrotation Yrotation Xrotation
      JOINT LeftFoot
      {
        OFFSET 0 0 -39.357303
        CHANNELS 3 Zrotation Yrotation Xrotation
      }
    }
  }
  JOINT RightThigh
  {
    OFFSET -8.409438 0 -5.917753
    CHANNELS 3 Zrotation Yrotation Xrotation
    JOINT RightLeg
    {
      OFFSET 0 0 -42.358652
      CHANNELS 3 Zrotation Yrotation Xrotation
      JOINT RightFoot
      {
        OFFSET 0 0 -39.357303
        CHANNELS 3 Zrotation Yrotation Xrotation
      }
    }
  }
  JOINT SpineLow
  {
    OFFSET 0 0 4.719101
    CHANNELS 3 Zrotation Yrotation Xrotation
    JOINT SpineMid
    {
      OFFSET 0 0 12.899191
      CHANNELS 3 Zrotation Yrotation Xrotation
      JOINT Chest
      {
        OFFSET 0 0 12.899191
        CHANNELS 3 Zrotation Yrotation Xrotation
        JOINT LeftShoulder
        {
          OFFSET 7.550562 1.41573 9.438202
          CHANNELS 3 Zrotation Yrotation Xrotation
          JOINT LeftArm
          {
            OFFSET 9.155056 0 4.247191
            CHANNELS 3 Zrotation Yrotation Xrotation
            JOINT LeftForearm
            {
              OFFSET 0 0 25.771955
              CHANNELS 3 Zrotation Yrotation Xrotation
              JOINT LeftHand
              {
                OFFSET 0 0 25.197169
                CHANNELS 3 Zrotation Yrotation Xrotation
              }
            }
          }
        }
        JOINT RightShoulder
        {
          OFFSET -7.550562 1.41573 9.438202
          CHANNELS 3 Zrotation Yrotation Xrotation
          JOINT RightArm
          {
            OFFSET -9.155056 0 4.247191
            CHANNELS 3 Zrotation Yrotation Xrotation
            JOINT RightForearm
            {
              OFFSET 0 0 -25.771955
              CHANNELS 3 Zrotation Yrotation Xrotation
              JOINT RightHand
              {
                OFFSET 0 0 -25.197169
                CHANNELS 3 Zrotation Yrotation Xrotation
              }
            }
          }
        }
        JOINT Neck
        {
          OFFSET 0 0 15.101124
          CHANNELS 3 Zrotation Yrotation Xrotation
          JOINT Head
          {
            OFFSET 0 0 11.325843
            CHANNELS 3 Zrotation Yrotation Xrotation
            End Site
            {
              OFFSET 0 0 14.157303
            }
          }
        }
      }
    }
  }
}
MOTION
Frames: 8
Frame Time: 0.0
0.0  89.887642  0.0  2.181579  16.003357  -97.064166  -4.997535  -12.953849  -2.999532  -8.305134  7.408162  23.004902  -1.123518  1.10758  0.111236  -27.248678  15.118772  2.549326  -23.985424  8.969171  7.180973  9.025675  2.594995  -0.788147  3.945886  -0.776064  1.191514  10.748423  -2.308308  3.12166  10.748423  -2.308308  3.121659  -21.433234  9.123254  -8.909541  139.733971  55.697122  -130.784902  11.914278  8.381114  5.163927  102.986777  -15.895967  9.277564  -0.640847  -8.513377  8.966318  100.240376  26.054145  15.147697  -7.645137  -20.587322  -81.91467  46.559962  -7.678908  -22.193253  -37.588836  3.178448  1.26312  -28.19102  2.316457  1.148385  
0.0  89.887642  0.0  1.892848  16.533165  -97.069154  -5.423919  -13.105629  -2.79047  -8.145788  7.129382  22.749224  -1.465266  1.049596  0.082462  -27.62021  14.682264  2.604163  -24.218898  9.303427  7.238719  9.201956  2.767471  -0.798632  4.385047  -0.799461  1.335719  11.942576  -2.417921  3.494015  11.942576  -2.417921  3.494014  -21.824573  7.213983  -10.333  136.611957  55.647618  -131.712329  10.633271  7.296863  6.377712  102.535872  -16.260864  6.087556  -1.112745  -9.128927  7.958517  98.465528  25.847265  15.176516  -5.886314  -21.067705  -84.6967  45.456029  -8.044568  -20.939006  -39.344136  2.544232  0.954806  -29.507249  1.855751  0.884652  
0.0  89.887642  0.0  1.530338  16.412325  -97.058156  -5.556201  -13.366224  -2.574584  -7.942721  6.881192  22.58499  -1.581155  1.028567  0.145141  -27.850139  14.248947  2.478057  -24.272712  9.442158  7.399036  9.249696  2.925391  -0.839986  4.665886  -0.935078  1.34052  12.704328  -2.802175  3.47039  12.704328  -2.802175  3.470389  -21.064882  6.099054  -11.169565  133.948744  54.908546  -133.365961  9.494683  5.528771  7.93217  103.248352  -16.443256  4.784894  -0.55078  -9.138408  8.051986  96.994744  25.578091  15.335293  -3.801093  -21.780084  -87.282203  44.774454  -8.608103  -19.629332  -40.101771  2.574793  0.779282  -30.07454  1.889556  0.757741  
0.0  89.887642  0.0  1.164441  15.966562  -97.089645  -5.721975  -13.649687  -2.286121  -7.763375  6.684274  22.413479  -1.663387  1.04979  0.189465  -28.163397  13.844681  2.327529  -24.242979  9.489424  7.490608  9.524755  3.072114  -0.835336  4.916783  -1.045854  1.383678  13.383722  -3.124747  3.554472  13.383722  -3.124746  3.554471  -20.286816  4.718892  -12.254109  131.531067  53.506601  -134.8997  8.770916  3.322375  9.037554  104.364538  -16.249021  4.941908  0.071542  -9.204158  7.913211  95.993184  25.28217  15.555065  -3.675518  -22.174545  -87.987256  44.552188  -9.967402  -20.000948  -40.487091  2.401596  0.608555  -30.363244  1.770061  0.619192  
0.0  89.887642  0.0  0.857095  15.309213  -97.163031  -5.926283  -13.897085  -1.9249  -7.447988  6.557038  22.357209  -1.592569  1.068209  0.298694  -28.542103  13.492195  2.129754  -24.270105  9.514579  7.542651  9.665337  3.145439  -0.833086  5.107923  -1.150268  1.437158  13.899336  -3.429571  3.668845  13.899336  -3.429571  3.668845  -19.448787  3.385588  -13.300366  129.498099  51.666134  -136.152436  8.783708  0.830575  9.826245  104.982053  -15.555094  5.687379  0.663248  -9.211067  7.789426  95.697852  25.244668  15.9019  -1.417138  -23.290661  -89.480868  44.635189  -10.006435  -18.552031  -40.511236  2.161624  0.433458  -30.381335  1.600814  0.47125  
0.0  89.887642  0.0  0.64565  14.545632  -97.259372  -6.26609  -14.040496  -1.488432  -7.065396  6.44395  22.309489  -1.369368  1.107365  0.453422  -29.065161  13.254717  1.805868  -24.094277  9.567674  7.688732  9.678969  3.212009  -0.872738  5.28023  -1.184305  1.495709  14.365925  -3.54376  3.811415  14.365926  -3.54376  3.811415  -18.867556  1.841873  -14.170274  128.742023  49.786919  -136.688558  9.677605  -1.314294  10.558406  105.046651  -14.414059  6.30097  0.778119  -9.549378  7.567343  96.145182  25.560147  16.489646  0.781823  -24.774611  -90.518168  45.017893  -9.62849  -17.313284  -40.406178  1.7172  0.412834  -30.303512  1.267152  0.425682  
0.0  89.887642  0.0  0.497636  13.516428  -97.326093  -6.512651  -14.113855  -1.007279  -6.480372  6.29992  22.315279  -1.16338  1.152922  0.569608  -29.625236  13.018963  1.302381  -23.876669  9.612131  7.932973  9.959342  3.247542  -0.882472  5.432814  -1.179556  1.572449  14.779119  -3.556204  4.012508  14.779119  -3.556204  4.012508  -18.417595  0.221125  -15.164006  129.418933  47.820515  -136.73893  10.71191  -3.128316  11.357663  104.995939  -12.97781  6.763341  0.753089  -10.082184  7.168567  97.098814  26.065953  17.500574  2.613377  -26.134935  -91.195156  45.842651  -8.758188  -16.495019  -40.141229  1.133391  0.391836  -30.105667  0.828511  0.370417  
0.0  89.887642  0.0  0.453748  12.133714  -97.436094  -6.578297  -14.084378  -0.478591  -5.65456  6.112575  22.459758  -0.944092  1.198742  0.649178  -30.058162  12.848435  0.649824  -23.550023  9.684811  8.327136  10.315023  3.299852  -0.858539  5.532139  -1.18211  1.633613  15.04717  -3.582665  4.172585  15.047169  -3.582665  4.172585  -17.51972  -1.080999  -15.817057  132.688509  45.829103  -137.117677  11.599085  -4.566471  14.143306  105.396006  -11.639661  7.549236  0.961581  -10.644088  7.018016  98.191775  26.601874  18.948558  3.582308  -26.765222  -91.620239  46.984  -7.839729  -16.142122  -39.590329  0.771532  0.40138  -29.692815  0.555366  0.352906  
